<svg xmlns="http://www.w3.org/2000/svg" xmlns:xlink="http://www.w3.org/1999/xlink" width="500" zoomAndPan="magnify" viewBox="0 0 375 374.999991" height="500" preserveAspectRatio="xMidYMid meet" version="1.0"><defs><clipPath id="5752300468"><path d="M 14.121094 35.578125 L 360.621094 35.578125 L 360.621094 339.328125 L 14.121094 339.328125 Z M 14.121094 35.578125 " clip-rule="nonzero"/></clipPath></defs><g clip-path="url(#5752300468)"><path fill="#0b0605" d="M 201.648438 178.152344 C 190.457031 178.199219 179.304688 180.230469 168.660156 183.871094 L 130.226562 85.785156 L 146.808594 35.589844 C 146.808594 35.589844 160.339844 72.691406 163.398438 80.113281 Z M 263.351562 336.324219 L 209.644531 198.679688 C 198.464844 198.179688 186.890625 199.753906 176.300781 203.8125 L 227.996094 336.324219 L 201.808594 336.324219 L 201.808594 339.382812 L 286.484375 339.382812 L 286.484375 336.324219 Z M 258.730469 35.589844 L 167.398438 35.589844 L 203.195312 126.832031 L 200.457031 38.648438 L 254.804688 38.648438 C 263.101562 38.648438 274.007812 39.960938 284.050781 43.882812 C 285.359375 44.757812 286.671875 45.632812 289.285156 46.941406 C 312.421875 60.472656 323.328125 85.792969 323.328125 114.601562 C 323.328125 140.785156 315.035156 163.921875 296.707031 178.324219 C 295.832031 178.761719 294.960938 179.636719 292.78125 180.945312 C 287.984375 183.566406 283.175781 184.871094 277.941406 184.871094 C 265.527344 185.878906 237.503906 186.371094 204.917969 186.542969 L 204.207031 186.605469 C 193.339844 187.609375 182.597656 189.664062 172.128906 192.730469 C 119.3125 209.308594 76.972656 245.96875 52.097656 295.726562 C 45.113281 314.929688 35.945312 336.316406 24.164062 336.316406 L 14.121094 336.316406 L 14.121094 339.375 L 82.644531 339.375 L 82.644531 336.316406 L 67.804688 336.316406 C 53.839844 336.316406 48.601562 320.601562 51.652344 304.019531 C 55.578125 292.675781 75.664062 255.574219 109.269531 228.949219 C 131.09375 211.488281 153.792969 201.453125 172.996094 195.34375 C 183.464844 192.417969 194.195312 190.496094 205.027344 189.613281 L 206.074219 189.53125 C 245.714844 189.15625 282.066406 188.035156 297.574219 186.617188 C 297.574219 186.617188 300.632812 186.183594 302.808594 185.308594 C 337.734375 172.207031 360.867188 145.585938 360.867188 113.28125 C 360.867188 67.886719 322.019531 35.589844 258.730469 35.589844 Z M 258.730469 35.589844 " fill-opacity="1" fill-rule="nonzero"/></g></svg>