<svg xmlns="http://www.w3.org/2000/svg" xmlns:xlink="http://www.w3.org/1999/xlink" width="500" zoomAndPan="magnify" viewBox="0 0 375 374.999991" height="500" preserveAspectRatio="xMidYMid meet" version="1.0"><defs><g/><clipPath id="300872c766"><rect x="0" width="158" y="0" height="286"/></clipPath><clipPath id="ff91616175"><path d="M 104 67 L 269 67 L 269 298 L 104 298 Z M 104 67 " clip-rule="nonzero"/></clipPath><clipPath id="24f8f62eab"><path d="M 260.207031 67.40625 L 268.925781 73.496094 L 112.792969 297.039062 L 104.074219 290.945312 Z M 260.207031 67.40625 " clip-rule="nonzero"/></clipPath><clipPath id="77deeb9082"><path d="M 0 0.199219 L 165 0.199219 L 165 230.121094 L 0 230.121094 Z M 0 0.199219 " clip-rule="nonzero"/></clipPath><clipPath id="5b6aa117a4"><path d="M 156.207031 0.40625 L 164.925781 6.496094 L 8.792969 230.039062 L 0.0742188 223.945312 Z M 156.207031 0.40625 " clip-rule="nonzero"/></clipPath><clipPath id="4d3110fa9c"><rect x="0" width="165" y="0" height="231"/></clipPath></defs><rect x="-37.5" width="450" fill="#ffffff" y="-37.499999" height="449.999989" fill-opacity="1"/><rect x="-37.5" width="450" fill="#ff751f" y="-37.499999" height="449.999989" fill-opacity="1"/><g transform="matrix(1, 0, 0, 1, 106, 67)"><g clip-path="url(#300872c766)"><g fill="#000000" fill-opacity="1"><g transform="translate(1.204186, 214.091283)"><g><path d="M 5.125 -136.375 C 5.125 -146.8125 7.921875 -156.441406 13.515625 -165.265625 C 19.117188 -174.097656 26.710938 -181.21875 36.296875 -186.625 C 45.878906 -192.03125 56.648438 -194.734375 68.609375 -194.734375 C 75.628906 -194.734375 81.890625 -193.640625 87.390625 -191.453125 C 92.898438 -189.273438 97.882812 -186.710938 102.34375 -183.765625 C 106.8125 -180.828125 110.941406 -178.265625 114.734375 -176.078125 C 118.523438 -173.898438 122.128906 -172.8125 125.546875 -172.8125 C 132.765625 -172.8125 137.414062 -174.660156 139.5 -178.359375 C 141.59375 -182.066406 142.640625 -187.050781 142.640625 -193.3125 L 149.1875 -193.3125 C 150.132812 -185.53125 150.226562 -177.507812 149.46875 -169.25 C 148.707031 -161 146.617188 -153.359375 143.203125 -146.328125 C 139.785156 -139.304688 134.753906 -133.613281 128.109375 -129.25 C 121.472656 -124.882812 112.835938 -122.703125 102.203125 -122.703125 C 95.179688 -122.703125 88.96875 -124.269531 83.5625 -127.40625 C 78.15625 -130.539062 73.265625 -134.429688 68.890625 -139.078125 C 64.523438 -143.722656 60.585938 -148.46875 57.078125 -153.3125 C 53.566406 -158.15625 50.148438 -162.332031 46.828125 -165.84375 C 43.503906 -169.351562 40.085938 -171.488281 36.578125 -172.25 C 33.066406 -173.007812 29.222656 -171.679688 25.046875 -168.265625 C 20.492188 -164.460938 19.78125 -159.757812 22.90625 -154.15625 C 26.039062 -148.5625 32.640625 -142.867188 42.703125 -137.078125 C 52.765625 -131.296875 65.765625 -126.125 81.703125 -121.5625 C 87.773438 -119.851562 94.941406 -117.429688 103.203125 -114.296875 C 111.460938 -111.171875 119.578125 -107.09375 127.546875 -102.0625 C 135.515625 -97.03125 142.15625 -90.910156 147.46875 -83.703125 C 152.789062 -76.492188 155.453125 -67.953125 155.453125 -58.078125 C 155.453125 -47.453125 152.601562 -37.582031 146.90625 -28.46875 C 141.207031 -19.351562 133.519531 -11.992188 123.84375 -6.390625 C 114.164062 -0.796875 103.15625 2 90.8125 2 C 83.789062 2 77.335938 0.859375 71.453125 -1.421875 C 65.578125 -3.703125 60.171875 -6.265625 55.234375 -9.109375 C 50.296875 -11.953125 45.738281 -14.515625 41.5625 -16.796875 C 37.382812 -19.078125 33.492188 -20.21875 29.890625 -20.21875 C 22.867188 -20.21875 18.265625 -18.363281 16.078125 -14.65625 C 13.898438 -10.957031 12.8125 -5.976562 12.8125 0.28125 L 6.546875 0.28125 C 5.410156 -7.5 5.269531 -15.515625 6.125 -23.765625 C 6.976562 -32.023438 9.113281 -39.664062 12.53125 -46.6875 C 15.945312 -53.707031 20.972656 -59.398438 27.609375 -63.765625 C 34.253906 -68.140625 42.796875 -70.328125 53.234375 -70.328125 C 60.265625 -70.328125 66.625 -68.757812 72.3125 -65.625 C 78.007812 -62.488281 83.179688 -58.546875 87.828125 -53.796875 C 92.484375 -49.054688 96.800781 -44.265625 100.78125 -39.421875 C 104.769531 -34.585938 108.566406 -30.414062 112.171875 -26.90625 C 115.773438 -23.394531 119.378906 -21.257812 122.984375 -20.5 C 126.597656 -19.738281 130.394531 -21.066406 134.375 -24.484375 C 138.9375 -28.472656 139.175781 -33.40625 135.09375 -39.28125 C 131.007812 -45.164062 123.601562 -51.144531 112.875 -57.21875 C 102.15625 -63.289062 88.726562 -68.703125 72.59375 -73.453125 C 59.6875 -77.242188 48.109375 -81.609375 37.859375 -86.546875 C 27.609375 -91.484375 19.585938 -97.890625 13.796875 -105.765625 C 8.015625 -113.640625 5.125 -123.84375 5.125 -136.375 Z M 5.125 -136.375 "/></g></g></g></g></g><g clip-path="url(#ff91616175)"><g clip-path="url(#24f8f62eab)"><g transform="matrix(1, 0, 0, 1, 104, 67)"><g clip-path="url(#4d3110fa9c)"><g clip-path="url(#77deeb9082)"><g clip-path="url(#5b6aa117a4)"><path fill="#ff751f" d="M 156.207031 0.40625 L 164.925781 6.496094 L 8.789062 230.042969 L 0.0664062 223.953125 Z M 156.207031 0.40625 " fill-opacity="1" fill-rule="nonzero"/></g></g></g></g></g></g></svg>